<svg width="25" height="24" viewBox="0 0 25 24" fill="none" xmlns="http://www.w3.org/2000/svg">
<g clip-path="url(#clip0_1165_425)">
<path d="M4.90402 10.9504C4.87827 11.1896 4.84356 11.413 4.83013 11.6365C4.71592 13.3486 5.11579 15.0558 5.9777 16.5357C6.6985 17.7946 7.73022 18.8441 8.97257 19.5822C10.06 20.2356 11.2812 20.63 12.5429 20.7354C14.2871 20.8922 16.0357 20.4864 17.5362 19.5766C18.8257 18.8144 19.8981 17.7296 20.6498 16.4274C21.1547 15.5642 21.4693 14.6288 21.7246 13.6686C21.8287 13.2737 22.0112 13.1755 22.3963 13.285C22.9807 13.4508 23.5663 13.6122 24.1496 13.7803C24.4496 13.8672 24.5571 14.059 24.4854 14.3546C24.1149 15.8519 23.5596 17.268 22.6807 18.5419C21.0909 20.8448 18.9805 22.447 16.2991 23.1974C12.5922 24.2332 9.1976 23.4998 6.18818 21.11C4.10352 19.4536 2.80481 17.2612 2.22263 14.648C1.90349 13.2344 1.86885 11.7707 2.12075 10.3434C2.1465 10.1978 2.10284 10.1459 1.96625 10.1109C1.57551 10.0105 1.18926 9.89432 0.80301 9.78261C0.389886 9.66413 0.302557 9.32224 0.61268 9.01647C1.92856 7.71512 3.2463 6.41527 4.56591 5.11693C4.857 4.83033 5.20407 4.91947 5.30483 5.31213C5.77132 7.12725 6.23446 8.94387 6.69423 10.762C6.79051 11.14 6.52629 11.3894 6.14675 11.2878C5.80304 11.1953 5.46045 11.0949 5.11674 10.999C5.05516 10.9809 4.98911 10.9696 4.90402 10.9504Z" fill="#2270B1" stroke="white" stroke-width="0.25"/>
<path d="M12.4869 0.78528C12.8037 0.773997 12.965 0.918424 12.9952 1.23662C13.0534 1.86623 13.1131 2.49546 13.1743 3.12432C13.2079 3.46282 13.0624 3.65577 12.7198 3.68849C12.5619 3.70429 12.4041 3.72233 12.2462 3.73135C11.9551 3.74941 11.7804 3.62642 11.7491 3.33982C11.6745 2.65831 11.611 1.97605 11.5588 1.29303C11.5386 1.03239 11.692 0.874411 11.9551 0.833791H11.9943L12.4869 0.78528Z" fill="#2270B1" stroke="white" stroke-width="0.25"/>
<path d="M21.6764 10.8479C21.6764 10.5376 21.7805 10.3819 22.0447 10.3424C22.7165 10.2446 23.3882 10.1555 24.06 10.075C24.1144 10.0661 24.1702 10.0687 24.2236 10.0825C24.2771 10.0963 24.3271 10.1211 24.3707 10.1553C24.4142 10.1895 24.4502 10.2324 24.4765 10.2813C24.5028 10.3302 24.5188 10.3841 24.5235 10.4395C24.5578 10.629 24.5847 10.8197 24.6041 11.0115C24.6298 11.2902 24.5089 11.4629 24.2335 11.508C23.5685 11.6058 22.9016 11.6946 22.2328 11.7743C21.9585 11.807 21.7928 11.6728 21.7424 11.3952C21.7122 11.2 21.6954 11.0003 21.6764 10.8479Z" fill="#2270B1" stroke="white" stroke-width="0.25"/>
<path d="M8.89196 4.84753C8.79007 4.76629 8.63669 4.69858 8.57287 4.58123C8.24483 3.98208 7.93471 3.37279 7.62907 2.76123C7.60054 2.71382 7.58218 2.6609 7.57517 2.60589C7.56816 2.55089 7.57266 2.49502 7.58837 2.44188C7.60409 2.38873 7.63067 2.33947 7.66641 2.29731C7.70215 2.25515 7.74625 2.22101 7.79588 2.19707C7.97671 2.08882 8.16362 1.99123 8.35567 1.90482C8.40093 1.8792 8.45093 1.86324 8.50257 1.85793C8.55421 1.85262 8.60638 1.85806 8.65584 1.87394C8.70529 1.88981 8.75098 1.91576 8.79006 1.95019C8.82914 1.98462 8.86078 2.02679 8.883 2.07407C9.21103 2.68901 9.53347 3.30621 9.83464 3.93469C9.86111 4.0001 9.87226 4.07079 9.86721 4.14124C9.86216 4.2117 9.84105 4.28002 9.80553 4.34091C9.58497 4.60155 9.2547 4.70197 8.89196 4.84753Z" fill="#2270B1" stroke="white" stroke-width="0.25"/>
<path d="M23.4375 7.10861C23.3524 7.22145 23.2863 7.36586 23.171 7.43469C22.5933 7.78109 22.0055 8.1117 21.4144 8.43666C21.3689 8.46687 21.3175 8.48709 21.2638 8.49606C21.21 8.50502 21.1549 8.5025 21.1022 8.48867C21.0494 8.47485 21.0001 8.45004 20.9575 8.41581C20.9148 8.38158 20.8798 8.33871 20.8546 8.28998C20.7401 8.11129 20.6361 7.9259 20.5434 7.73482C20.5163 7.69014 20.4986 7.64036 20.4914 7.58851C20.4842 7.53667 20.4876 7.48388 20.5015 7.43342C20.5153 7.38297 20.5393 7.33593 20.5719 7.29519C20.6046 7.25446 20.6451 7.22092 20.6912 7.19663C21.2957 6.8412 21.9037 6.49366 22.5217 6.16531C22.5831 6.13841 22.6499 6.12633 22.7168 6.13005C22.7836 6.13378 22.8487 6.15319 22.9068 6.18675C23.1677 6.41241 23.2964 6.73288 23.4375 7.10861Z" fill="#2270B1" stroke="white" stroke-width="0.25"/>
<path d="M20.82 3.76324C20.7767 3.87344 20.7231 3.97923 20.6599 4.07918C20.2531 4.60573 19.8426 5.12628 19.4283 5.6408C19.3967 5.68857 19.3555 5.72901 19.3072 5.75948C19.2589 5.78994 19.2048 5.80973 19.1484 5.81752C19.092 5.82531 19.0345 5.82092 18.9799 5.80465C18.9253 5.78839 18.8747 5.76062 18.8316 5.72317C18.6645 5.60369 18.5045 5.47447 18.3524 5.33616C18.308 5.30317 18.2709 5.26106 18.2437 5.21264C18.2165 5.16421 18.1998 5.11055 18.1946 5.05515C18.1894 4.99975 18.1959 4.94388 18.2137 4.89119C18.2314 4.8385 18.26 4.79018 18.2976 4.7494C18.7118 4.21457 19.1313 3.68389 19.556 3.15733C19.7329 2.94069 19.9456 2.9215 20.1684 3.08511C20.3258 3.1961 20.4754 3.31787 20.6162 3.44956C20.6947 3.5467 20.763 3.65183 20.82 3.76324V3.76324Z" fill="#2270B1" stroke="white" stroke-width="0.25"/>
<path d="M17.1332 1.77594C17.1007 1.88877 17.0582 2.04109 17.0134 2.19342C16.8622 2.71019 16.7145 3.22697 16.5566 3.74149C16.4446 4.09127 16.2711 4.1838 15.9263 4.07999C15.7617 4.03147 15.5904 3.98972 15.4337 3.92991C15.193 3.84078 15.09 3.66026 15.1605 3.40977C15.3463 2.7448 15.5411 2.08245 15.7449 1.42275C15.7579 1.3721 15.7809 1.32465 15.8126 1.28323C15.8443 1.2418 15.884 1.20729 15.9294 1.18177C15.9747 1.15625 16.0246 1.14023 16.0763 1.13472C16.1279 1.12921 16.1801 1.13431 16.2297 1.1497C16.4411 1.19929 16.6497 1.26068 16.8544 1.33361C17.0347 1.39905 17.1298 1.53447 17.1332 1.77594Z" fill="#2270B1" stroke="white" stroke-width="0.25"/>
<path d="M12.5733 12.879C13.4182 13.727 14.3971 14.5386 14.784 14.15C15.3375 13.5941 15.6791 13.1095 16.9003 14.0953C18.121 15.0805 17.1832 15.7378 16.6468 16.276C16.0276 16.8978 13.7198 16.3092 11.4386 14.0186C9.15789 11.7275 8.57345 9.40961 9.19312 8.78779C9.72952 8.24851 10.3807 7.3072 11.3617 8.53316C12.3432 9.75912 11.8613 10.1022 11.3067 10.6586C10.9214 11.0473 11.7289 12.0304 12.5733 12.879Z" fill="#2270B1" stroke="#2270B1" stroke-width="0.5"/>
</g>
<defs>
<clipPath id="clip0_1165_425">
<rect width="24.1885" height="22.8691" fill="white" transform="translate(0.424622 0.7854)"/>
</clipPath>
</defs>
</svg>
