<svg width="18" height="18" viewBox="0 0 18 18" fill="none" xmlns="http://www.w3.org/2000/svg">
<path d="M9 12C10.6569 12 12 10.6569 12 9C12 7.34315 10.6569 6 9 6C7.34315 6 6 7.34315 6 9C6 10.6569 7.34315 12 9 12Z" stroke="#2270B1" stroke-width="1.7" stroke-linecap="round" stroke-linejoin="round"/>
<path d="M8.58811 2.26572L7.07256 1.1294C6.99125 1.06823 6.89656 1.02726 6.7963 1.00987C6.69605 0.992472 6.59309 0.999152 6.49592 1.02936C6.02655 1.17634 5.57116 1.36475 5.13514 1.59237C5.04488 1.63971 4.96718 1.70784 4.90844 1.79114C4.8497 1.87443 4.81161 1.9705 4.79732 2.07141L4.5294 3.94689C4.42728 4.03742 4.3273 4.13157 4.22946 4.22935C4.13165 4.32716 4.03748 4.42716 3.94693 4.52937L3.94689 4.5294L2.07174 4.79755C1.97099 4.8118 1.87507 4.84978 1.79188 4.90837C1.70868 4.96697 1.64061 5.04449 1.59326 5.13456C1.36529 5.57039 1.17651 6.02562 1.02915 6.49488C0.998803 6.59218 0.992032 6.6953 1.00939 6.79574C1.02676 6.89617 1.06775 6.99103 1.129 7.0725L2.26572 8.58811C2.25752 8.72433 2.2534 8.8616 2.25336 8.99992C2.25336 9.13824 2.25748 9.27555 2.26573 9.41184L2.26572 9.41189L1.1294 10.9274C1.06823 11.0088 1.02726 11.1034 1.00987 11.2037C0.992472 11.304 0.999152 11.4069 1.02936 11.5041C1.17634 11.9735 1.36475 12.4288 1.59237 12.8649C1.63971 12.9551 1.70784 13.0328 1.79114 13.0916C1.87443 13.1503 1.9705 13.1884 2.07141 13.2027L3.94689 13.4706C4.03741 13.5727 4.13157 13.6727 4.22935 13.7705C4.32715 13.8683 4.42716 13.9625 4.52936 14.0531L4.5294 14.0531L4.79755 15.9283C4.81179 16.029 4.84978 16.1249 4.90837 16.2081C4.96696 16.2913 5.04449 16.3594 5.13455 16.4067C5.57039 16.6347 6.02562 16.8235 6.49488 16.9709C6.59218 17.0012 6.6953 17.008 6.79573 16.9906C6.89617 16.9732 6.99103 16.9322 7.0725 16.871L8.5881 15.7343C8.72432 15.7425 8.8616 15.7466 8.99992 15.7466C9.13824 15.7466 9.27555 15.7425 9.41184 15.7343L9.41189 15.7343L10.9274 16.8706C11.0088 16.9318 11.1034 16.9727 11.2037 16.9901C11.304 17.0075 11.4069 17.0008 11.5041 16.9706C11.9735 16.8237 12.4288 16.6352 12.8649 16.4076C12.9551 16.3603 13.0328 16.2922 13.0916 16.2089C13.1503 16.1256 13.1884 16.0295 13.2027 15.9286L13.4706 14.0531C13.5727 13.9626 13.6727 13.8684 13.7705 13.7707C13.8683 13.6728 13.9625 13.5728 14.0531 13.4706L14.0531 13.4706L15.9283 13.2024C16.029 13.1882 16.1249 13.1502 16.2081 13.0916C16.2913 13.033 16.3594 12.9555 16.4067 12.8654C16.6347 12.4296 16.8235 11.9744 16.9709 11.5051C17.0012 11.4078 17.008 11.3047 16.9906 11.2043C16.9732 11.1038 16.9322 11.009 16.871 10.9275L15.7343 9.4119C15.7425 9.27568 15.7466 9.13841 15.7466 9.00008C15.7466 8.86176 15.7425 8.72445 15.7343 8.58816L15.7343 8.58811L16.8706 7.07256C16.9318 6.99125 16.9727 6.89656 16.9901 6.7963C17.0075 6.69605 17.0008 6.59309 16.9706 6.49592C16.8237 6.02655 16.6352 5.57116 16.4076 5.13514C16.3603 5.04488 16.2922 4.96718 16.2089 4.90844C16.1256 4.8497 16.0295 4.81161 15.9286 4.79732L14.0531 4.5294C13.9626 4.42728 13.8684 4.3273 13.7707 4.22946C13.6728 4.13165 13.5728 4.03748 13.4706 3.94693L13.4706 3.94689L13.2024 2.07174C13.1882 1.97099 13.1502 1.87507 13.0916 1.79188C13.033 1.70868 12.9555 1.64061 12.8654 1.59326C12.4296 1.36529 11.9744 1.17651 11.5051 1.02915C11.4078 0.998803 11.3047 0.992032 11.2043 1.00939C11.1038 1.02676 11.009 1.06775 10.9275 1.129L9.4119 2.26572C9.27567 2.25752 9.1384 2.2534 9.00008 2.25336C8.86176 2.25336 8.72445 2.25748 8.58816 2.26573L8.58811 2.26572Z" stroke="#2270B1" stroke-width="1.7" stroke-linecap="round" stroke-linejoin="round"/>
</svg>
