<svg width="24" height="22" viewBox="0 0 24 22" fill="none" xmlns="http://www.w3.org/2000/svg">
<g clip-path="url(#clip0_1165_419)">
<path d="M11.7525 21.4723C10.8198 21.2474 9.87168 21.0732 8.95837 20.7856C7.65249 20.3747 6.52038 19.6315 5.49601 18.7218C4.86061 18.1583 4.76144 17.5286 5.22473 16.9983C5.68028 16.4769 6.31898 16.4945 6.95852 17.0465C11.4834 20.951 18.2625 19.3754 20.3938 13.8535C21.6898 10.4961 21.0682 7.37079 18.5606 4.80641C16.0154 2.20474 12.8743 1.5411 9.5048 2.87256C6.25434 4.15698 4.49705 6.69769 4.19483 10.2236C4.18212 10.3722 4.19317 10.5231 4.19317 10.7347C4.50147 10.7347 4.76973 10.7104 5.0319 10.7402C5.50485 10.7937 5.74796 11.2363 5.48303 11.631C4.84432 12.5803 4.18295 13.5156 3.49175 14.4267C3.21549 14.79 2.82873 14.7488 2.55965 14.3841C1.90409 13.4933 1.25931 12.5953 0.642144 11.6781C0.336878 11.2246 0.58689 10.78 1.1372 10.7363C1.38362 10.7168 1.63281 10.733 1.80188 10.733C2.03145 9.58803 2.15383 8.47816 2.48009 7.43537C3.95006 2.73476 8.42795 -0.333475 13.2686 0.0504018C18.4932 0.465178 22.4323 4.2363 23.1202 9.2924C23.1382 9.42463 23.1901 9.55184 23.2263 9.68212V11.7836C23.1901 11.9127 23.1407 12.0397 23.1197 12.1713C22.4884 16.1426 20.3623 18.9856 16.7014 20.5766C15.6585 21.0295 14.4874 21.1828 13.3749 21.4735L11.7525 21.4723Z" fill="#2270B1"/>
<path d="M13.2564 15.5924C13.1735 16.2048 13.426 16.9923 12.4984 17.1346C11.9856 17.2131 11.7994 16.8746 11.6353 15.6968C11.1105 15.5932 10.5795 15.5119 10.0607 15.3789C9.39958 15.2094 9.099 14.7447 9.24542 14.1944C9.40289 13.6023 9.86507 13.4275 10.5811 13.5708C11.219 13.6998 11.8677 13.7677 12.5183 13.7735C13.0224 13.7763 13.4877 13.5422 13.5882 12.974C13.6904 12.3953 13.2879 12.0832 12.8373 11.8586C12.5111 11.6949 12.1586 11.5849 11.8246 11.4354C11.3502 11.2233 10.8527 11.0457 10.4156 10.7687C8.66748 9.66359 8.72081 7.32638 10.5132 6.28554C10.8908 6.06618 11.3179 5.93312 11.7544 5.74633C11.8075 5.18346 11.6235 4.43575 12.5147 4.32106C13.0031 4.25815 13.1807 4.56268 13.368 5.6553C13.7965 5.73241 14.236 5.7828 14.6598 5.8947C15.2286 6.04475 15.4925 6.52271 15.3441 7.04939C15.209 7.52903 14.7529 7.73948 14.1905 7.6479C13.6424 7.55882 13.0838 7.48087 12.531 7.48895C12.0771 7.49451 11.6351 7.67044 11.5364 8.2077C11.4453 8.70432 11.797 8.96516 12.1688 9.14304C12.9147 9.50075 13.7018 9.7794 14.4341 10.1619C15.7168 10.83 16.2146 11.9014 15.9259 13.2493C15.7325 14.149 15.1767 14.7692 14.3736 15.1643C14.0322 15.3329 13.6598 15.4404 13.2564 15.5924Z" fill="#2270B1"/>
</g>
<defs>
<clipPath id="clip0_1165_419">
<rect width="22.716" height="21.454" fill="white" transform="translate(0.510925 0.0187988)"/>
</clipPath>
</defs>
</svg>
