<svg id="Calque_1" data-name="Calque 1" xmlns="http://www.w3.org/2000/svg" viewBox="0 0 36 25"><defs><style>.cls-1,.cls-2{fill:#e6e6e6;}.cls-1{opacity:0;}.cls-3{fill:#4fc9ff;}</style></defs><title>woorewards-icon</title><rect class="cls-1" width="36" height="25"/><path id="path14" class="cls-2" d="M17.1,11.82c.19.24.1.4-.21.36l-2.29-.3a.33.33,0,0,1-.26-.55l.75-1.18a.38.38,0,0,1,.65,0Z" transform="translate(0 -9)"/><path id="path16" class="cls-2" d="M19.11,12.11c-.28.09-.41-.05-.28-.32L20,9.25A.4.4,0,0,1,20.56,9l.11.07,1.81,1.46c.23.18.19.41-.09.5Z" transform="translate(0 -9)"/><path id="path20" class="cls-3" d="M26.16,12.94H18.62v3.34h7.54a.84.84,0,0,0,.84-.84V13.78A.84.84,0,0,0,26.16,12.94Z" transform="translate(0 -9)"/><path id="path22" class="cls-2" d="M16.14,17.47H9.87v8.32A1.22,1.22,0,0,0,11.11,27h6.31V17.47Z" transform="translate(0 -9)"/><path id="path24" class="cls-2" d="M24.91,17.47H18.62V27h6.29a1.22,1.22,0,0,0,1.25-1.2V17.47Z" transform="translate(0 -9)"/><path id="path4162" class="cls-3" d="M9.84,12.94h7.54v3.34H9.84A.84.84,0,0,1,9,15.44V13.78A.84.84,0,0,1,9.84,12.94Z" transform="translate(0 -9)"/></svg>