<svg width="58" height="58" viewBox="0 0 58 58" fill="none" xmlns="http://www.w3.org/2000/svg">
<path fill-rule="evenodd" clip-rule="evenodd" d="M32.5658 0.0165535C32.2471 0.0449965 31.6334 0.180496 31.2508 0.306784C30.6147 0.516819 30.1799 0.715498 28.5928 1.52129C27.0479 2.30563 26.6023 2.51036 25.9581 2.73196C24.5985 3.19967 23.6961 3.20069 20.9458 2.73755C20.3753 2.6415 19.7199 2.53831 19.4892 2.50821C16.7688 2.15347 15.3248 2.63598 14.073 4.31794C13.6316 4.91099 13.1909 5.69523 12.3059 7.46274C10.9554 10.1598 10.1589 10.9563 7.46183 12.3067C5.69429 13.1918 4.91004 13.6324 4.31698 14.0738C2.63498 15.3255 2.15246 16.7696 2.50721 19.4899C2.53731 19.7206 2.6405 20.376 2.73655 20.9465C3.1997 23.6967 3.19868 24.5991 2.73096 25.9587C2.50936 26.6029 2.30463 27.0484 1.52027 28.5933C0.714959 30.1795 0.515785 30.6153 0.306274 31.2497C-0.345711 33.2241 0.0179369 34.6506 1.64111 36.4864C1.78646 36.6507 2.47564 37.3627 3.17259 38.0685C3.86958 38.7743 4.56038 39.502 4.70773 39.6857C5.74288 40.9762 6.06504 41.8681 6.46019 44.5376C6.80225 46.8483 6.97365 47.5571 7.41021 48.467C7.67338 49.0155 7.91267 49.3629 8.28862 49.7421C9.07438 50.5347 10.2478 51.0255 12.1033 51.3377C12.3934 51.3865 13.0184 51.4833 13.4921 51.5528C15.9253 51.9099 16.8724 52.2226 17.9499 53.0245C18.5141 53.4444 18.7592 53.6693 20.1371 55.0322C20.8623 55.7495 21.6375 56.4846 21.8599 56.6659C22.8059 57.4371 23.6055 57.8366 24.4765 57.9731C24.8562 58.0326 25.6324 57.9894 26.0887 57.8834C26.9665 57.6796 27.524 57.4438 29.5069 56.4377C30.3191 56.0256 31.1497 55.6181 31.3528 55.5321C32.5262 55.035 33.4208 54.8738 34.601 54.9467C35.2515 54.987 35.6209 55.0362 37.0837 55.2776C38.8761 55.5734 39.0366 55.591 39.9667 55.5923C40.624 55.5933 40.8567 55.5807 41.1049 55.5307C42.0731 55.3357 42.7571 54.9687 43.4052 54.2964C44.0485 53.6291 44.4323 53.0167 45.3995 51.1143C46.1489 49.6405 46.3911 49.2055 46.791 48.6159C47.317 47.8406 47.8404 47.3171 48.6158 46.7912C49.2053 46.3913 49.6403 46.1491 51.1142 45.3998C53.0166 44.4325 53.629 44.0487 54.2963 43.4054C54.975 42.7512 55.3524 42.0416 55.5336 41.0793C55.5801 40.832 55.5936 40.572 55.5923 39.9494C55.5904 39.0387 55.571 38.8621 55.2777 37.084C55.0296 35.5802 54.9849 35.2455 54.9464 34.6037C54.8751 33.4132 55.0348 32.5269 55.532 31.3533C55.618 31.1502 56.0256 30.3196 56.4377 29.5075C57.4438 27.5245 57.6796 26.9671 57.8834 26.0892C57.9894 25.633 58.0326 24.8568 57.9731 24.4771C57.8366 23.6061 57.4371 22.8066 56.6659 21.8606C56.4846 21.6382 55.7494 20.8629 55.0322 20.1378C53.6692 18.7599 53.4443 18.5148 53.0244 17.9506C52.2101 16.8565 51.9133 15.9439 51.5345 13.3699C51.3542 12.1445 51.2757 11.6957 51.1441 11.1373C50.8391 9.84354 50.3905 8.93242 49.742 8.28951C49.3627 7.91357 49.0154 7.67428 48.4669 7.41112C47.5569 6.97456 46.8481 6.80317 44.5373 6.46111C41.8649 6.06555 40.9891 5.74906 39.6854 4.70778C39.5017 4.56106 38.7739 3.87091 38.0681 3.17411C36.4512 1.57782 36.1362 1.29483 35.4839 0.851981C34.5241 0.20036 33.5692 -0.0730295 32.5658 0.0165535ZM30.2765 7.94672C30.2253 8.04826 29.9002 8.68132 29.5539 9.35354L28.9243 10.5758L28.9484 11.1702L28.9725 11.7645L28.4838 11.7764C28.215 11.7829 27.9921 11.7877 27.9883 11.787C27.9845 11.7864 27.9703 11.5214 27.9567 11.1982L27.9318 10.6105L27.1101 9.28301L26.2883 7.95551L26.4493 7.92802C26.5378 7.9129 26.7861 7.90499 27.0011 7.91044L27.3921 7.92035L27.8824 8.72189C28.152 9.16274 28.3802 9.51583 28.3895 9.50655C28.3988 9.49723 28.6 9.11281 28.8366 8.65224L29.2669 7.81488L29.6858 7.79558C29.9162 7.78496 30.1642 7.77311 30.2371 7.76921L30.3695 7.76214L30.2765 7.94672ZM24.9549 8.65403C25.0394 8.94033 25.0571 9.04267 25.0252 9.0624C25.0018 9.07685 24.5867 9.20549 24.1027 9.3483C23.6187 9.49111 23.2157 9.62602 23.2071 9.64806C23.1795 9.71859 23.3713 10.2913 23.4173 10.2756C23.8178 10.139 25.0088 9.80736 25.0274 9.82723C25.0609 9.86281 25.2741 10.5827 25.2564 10.6004C25.2488 10.608 24.8842 10.7221 24.4463 10.8539C24.0083 10.9857 23.6435 11.1 23.6356 11.1079C23.6245 11.119 23.7853 11.6964 23.8072 11.7238C23.81 11.7273 24.2297 11.6048 24.7398 11.4514C25.25 11.298 25.6778 11.1725 25.6907 11.1725C25.7176 11.1725 25.9562 11.9758 25.9349 11.9947C25.9129 12.0142 23.1784 12.8249 23.1347 12.8249C23.1134 12.8249 23.0797 12.7735 23.0598 12.7107C22.8985 12.2003 22.0005 9.1569 22.0005 9.12044C22.0005 9.06988 24.7768 8.21368 24.8189 8.25123C24.8316 8.26262 24.8929 8.44386 24.9549 8.65403ZM35.4341 8.83619C35.9403 9.02084 36.4355 9.21277 36.5345 9.26269C37.0778 9.53664 37.3345 9.97292 37.2292 10.4434C37.1465 10.8129 36.845 11.148 36.5531 11.1946L36.4214 11.2157L36.541 11.3353C36.7127 11.507 36.7757 11.6504 36.7936 11.9105C36.822 12.3224 36.6285 12.6802 36.27 12.8788C36.0926 12.977 36.059 12.9831 35.6949 12.9819L35.3081 12.9807L34.2182 12.5814C33.6188 12.3618 33.1236 12.1783 33.1178 12.1736C33.1101 12.1674 34.1252 9.35593 34.4154 8.57957C34.4317 8.53608 34.4605 8.50046 34.4794 8.50046C34.4983 8.50046 34.9279 8.65154 35.4341 8.83619ZM35.1007 9.6199C35.0907 9.63611 35.028 9.79977 34.9615 9.98351L34.8405 10.3176L35.3112 10.4861C35.6869 10.6205 35.811 10.6506 35.9264 10.6351C36.2983 10.5852 36.3923 10.1529 36.0718 9.96624C35.9866 9.91667 35.173 9.59381 35.1256 9.59079C35.1219 9.59054 35.1107 9.60366 35.1007 9.6199ZM20.9358 11.1993C21.3847 11.929 21.8465 12.6793 21.962 12.8667L22.172 13.2073L21.8573 13.4028C21.6843 13.5104 21.526 13.5984 21.5057 13.5984C21.4853 13.5984 20.882 13.4161 20.165 13.1932C19.448 12.9704 18.8567 12.7928 18.8509 12.7985C18.8451 12.8043 19.0864 13.209 19.3872 13.6979C19.688 14.1867 19.9283 14.5909 19.9213 14.5962C19.9143 14.6014 19.7243 14.7182 19.499 14.8557L19.0894 15.1058L18.0615 13.4369C17.4961 12.519 17.0396 11.7622 17.0471 11.7549C17.1051 11.699 17.6501 11.3834 17.6887 11.3834C17.7157 11.3834 18.3281 11.573 19.0495 11.8047C19.7709 12.0363 20.3669 12.2201 20.3739 12.2131C20.381 12.2061 20.1407 11.8013 19.84 11.3137C19.5393 10.826 19.2933 10.414 19.2933 10.398C19.2933 10.3719 20.059 9.87508 20.102 9.87321C20.1116 9.87279 20.4869 10.4695 20.9358 11.1993ZM34.5584 11.095C34.4686 11.2762 34.3364 11.7089 34.3632 11.7342C34.3801 11.7504 34.6234 11.8456 34.9038 11.9459C35.4973 12.1581 35.63 12.1636 35.7916 11.9827C35.9937 11.7565 35.8567 11.5038 35.4488 11.3506C34.6374 11.0458 34.5896 11.0321 34.5584 11.095ZM40.7933 11.5329C41.0265 11.6946 41.1567 11.807 41.1495 11.8405C40.8691 13.1464 40.2244 15.954 40.2049 15.954C40.1826 15.954 39.4858 15.4704 39.3934 15.3909C39.3778 15.3774 39.4047 15.2104 39.4531 15.0197C39.5016 14.829 39.538 14.6704 39.5342 14.6672C39.4509 14.5984 38.2601 13.7647 38.2268 13.7519C38.2008 13.7419 38.0486 13.8215 37.8884 13.9287L37.5973 14.1236L37.4899 14.0437C37.4308 13.9997 37.2429 13.8637 37.0722 13.7416C36.8951 13.6148 36.775 13.5062 36.7926 13.4887C36.8564 13.4249 40.3379 11.2819 40.3809 11.28C40.4056 11.2789 40.5913 11.3927 40.7933 11.5329ZM39.5109 12.8616L38.9684 13.2185L39.0544 13.2845C39.3382 13.5023 39.7537 13.7708 39.7689 13.7462C39.801 13.6943 40.0754 12.571 40.0642 12.5374C40.0582 12.5194 39.8092 12.6653 39.5109 12.8616ZM16.2151 13.9331C17.2135 14.2804 17.7943 15.3334 17.5406 16.3366C17.4383 16.7412 17.2609 17.0444 16.941 17.361C16.5129 17.7847 16.0571 17.971 15.4596 17.9663C14.5954 17.9596 13.8346 17.3848 13.5407 16.5165C13.4417 16.224 13.449 15.6259 13.5554 15.3168C13.8158 14.56 14.4745 13.9804 15.2271 13.8457C15.4998 13.7969 15.9337 13.8353 16.2151 13.9331ZM43.8995 14.6189C44.5543 14.8485 45.1194 15.468 45.2925 16.146C45.432 16.6925 45.2763 17.3406 44.8998 17.7805L44.7782 17.9226L44.4651 17.5395L44.152 17.1564L44.2634 16.9405C44.5218 16.4395 44.3207 15.8686 43.7929 15.6049C43.6119 15.5145 43.5358 15.4969 43.3244 15.4969C43.1139 15.4969 43.0366 15.5146 42.8596 15.603C42.6097 15.7279 42.3474 15.9939 42.2443 16.2268C42.1459 16.4495 42.1456 16.7939 42.2437 17.0157C42.3341 17.2202 42.5753 17.4851 42.7538 17.5762C42.9514 17.677 43.1891 17.6955 43.4206 17.6282C43.5283 17.5969 43.6236 17.5713 43.6325 17.5713C43.6494 17.5713 44.189 18.2259 44.2343 18.3015C44.2719 18.3641 43.8786 18.5427 43.5496 18.6123C42.9517 18.7389 42.3367 18.5341 41.858 18.049C41.4759 17.6617 41.2517 17.1896 41.2112 16.6864C41.1355 15.7455 41.8092 14.8347 42.7794 14.5663C43.0552 14.49 43.6055 14.5158 43.8995 14.6189ZM15.1973 14.8407C14.9673 14.9171 14.848 14.9918 14.7073 15.1476C14.3224 15.5736 14.3308 16.1689 14.7277 16.6033C14.9735 16.8721 15.2224 16.9865 15.5665 16.9886C15.8722 16.9904 16.0729 16.9153 16.2927 16.7166C16.5007 16.5288 16.5996 16.304 16.6152 15.9839C16.6267 15.7499 16.6159 15.6872 16.5324 15.501C16.419 15.2484 16.1711 15.0002 15.9283 14.8961C15.7162 14.8052 15.381 14.7798 15.1973 14.8407ZM13.3026 18.6821C14.248 19.0997 15.0413 19.4495 15.0655 19.4594C15.0897 19.4692 15.1095 19.4954 15.1095 19.5175C15.1096 19.5766 14.748 20.3839 14.7214 20.3839C14.709 20.3839 14.322 20.2177 13.8614 20.0144C13.4008 19.8112 13.0179 19.651 13.0105 19.6585C13.0031 19.6659 13.1742 19.9389 13.3907 20.2653C13.6072 20.5916 13.7911 20.8839 13.7992 20.9148C13.8074 20.9458 13.7672 21.0744 13.71 21.2005L13.6059 21.43L13.382 21.4674C13.2589 21.488 12.9287 21.5402 12.6483 21.5835C12.3679 21.6268 12.1272 21.6716 12.1133 21.6829C12.0994 21.6942 12.4692 21.8692 12.9351 22.0717C13.4009 22.2742 13.7883 22.4563 13.796 22.4764C13.8204 22.5399 13.4333 23.3557 13.3843 23.3439C13.3175 23.3279 9.89288 21.8192 9.86197 21.7922C9.82808 21.7626 10.0971 21.1532 10.1584 21.1208C10.1839 21.1073 10.7348 21.0052 11.3826 20.8939C12.0304 20.7826 12.5652 20.6874 12.5711 20.6823C12.577 20.6772 12.2809 20.2029 11.913 19.6282C11.2467 18.5873 11.2443 18.5829 11.2917 18.4728C11.4685 18.0614 11.5356 17.9228 11.558 17.9228C11.5721 17.9228 12.3571 18.2645 13.3026 18.6821ZM47.227 19.0868C47.3237 19.3207 47.4073 19.5242 47.4129 19.5389C47.4185 19.5537 47.0664 19.7132 46.6306 19.8935C46.1948 20.0737 45.8384 20.2301 45.8386 20.241C45.8388 20.2519 46.3287 20.4264 46.9272 20.6287L48.0155 20.9964L48.2277 21.5087C48.3445 21.7905 48.44 22.0312 48.44 22.0436C48.44 22.0559 47.9693 21.9089 47.394 21.7169C46.8187 21.5249 46.3313 21.3741 46.311 21.3819C46.2906 21.3896 45.9664 21.9039 45.5905 22.5248C45.2146 23.1457 44.8986 23.6536 44.8881 23.6536C44.8732 23.6536 44.5467 22.8924 44.4493 22.6305C44.4362 22.5954 44.5964 22.2864 44.8742 21.8106C45.1225 21.3853 45.3063 21.0343 45.289 21.0183C45.272 21.0025 45.098 20.9376 44.9022 20.8741L44.5464 20.7587L44.1857 20.9045C43.9872 20.9847 43.8145 21.0439 43.8019 21.0361C43.7614 21.0111 43.434 20.1747 43.456 20.1526C43.4763 20.1324 46.9972 18.6664 47.0336 18.663C47.0433 18.6622 47.1303 18.8529 47.227 19.0868ZM33.8695 19.9777C35.5895 20.3113 36.7747 21.5697 37.1571 23.4685C37.2542 23.9502 37.2885 25.0036 37.2249 25.5497C37.0133 27.3682 36.0104 28.7585 34.526 29.2914C33.3348 29.7189 31.8598 29.6018 30.825 28.9975C29.5861 28.2739 28.8571 26.9622 28.7158 25.2024C28.6716 24.6525 28.7131 23.9723 28.823 23.4427C29.234 21.463 30.5643 20.1601 32.411 19.9286C32.7622 19.8845 33.521 19.9101 33.8695 19.9777ZM25.1824 20.0734C25.8273 20.2004 26.2995 20.4372 26.7372 20.853C27.0421 21.1426 27.2708 21.4951 27.3951 21.8667C27.7179 22.8324 27.5294 23.8253 26.9041 24.4528L26.6508 24.707L26.8199 24.8155C27.2247 25.0753 27.6167 25.6226 27.7254 26.0795C27.8767 26.716 27.7526 27.5031 27.4123 28.0656C26.7673 29.1318 25.306 29.7067 23.7066 29.5235C22.3264 29.3654 21.4002 28.6667 20.9961 27.4787C20.8851 27.1524 20.7915 26.6768 20.8307 26.6376C20.8486 26.6197 21.3194 26.6099 21.9113 26.6152L22.9601 26.6245L23.0064 26.7827C23.0837 27.0462 23.2678 27.3166 23.4555 27.4422C23.7241 27.6219 23.946 27.671 24.4215 27.6556C24.7713 27.6444 24.8594 27.6291 25.0272 27.5512C25.2426 27.451 25.4476 27.2663 25.5387 27.0901C25.629 26.9155 25.6443 26.535 25.5689 26.3377C25.4409 26.0026 25.0875 25.7405 24.6557 25.6607C24.5419 25.6397 24.2301 25.6225 23.963 25.6225H23.4772V24.764V23.9055L24.0837 23.8939C24.6654 23.8827 24.6984 23.8781 24.8911 23.7835C25.1379 23.6623 25.3522 23.4263 25.431 23.1891C25.5693 22.7727 25.4162 22.2746 25.0795 22.0456C24.8495 21.8892 24.6773 21.8506 24.2859 21.8678C23.8897 21.8852 23.6823 21.9732 23.4542 22.2206C23.3164 22.3702 23.1608 22.7022 23.1608 22.8468C23.1608 22.9147 23.1363 22.9161 22.0803 22.907L20.9999 22.8977L21.0097 22.7395C21.028 22.443 21.1616 21.9843 21.3334 21.6279C21.6306 21.0117 22.1947 20.4959 22.8463 20.2447C23.5697 19.9657 24.3467 19.9087 25.1824 20.0734ZM32.4901 21.9808C31.9774 22.1052 31.5174 22.4928 31.2561 23.0208C30.8739 23.7929 30.7896 24.8862 31.0374 25.8553C31.2505 26.6884 31.7823 27.2902 32.4618 27.4672C32.719 27.5342 33.2439 27.5362 33.4885 27.4711C34.2674 27.2637 34.8116 26.5591 34.9929 25.5232C35.0617 25.13 35.0622 24.3245 34.9939 23.9349C34.8099 22.8858 34.2682 22.1904 33.4736 21.9834C33.2332 21.9208 32.7427 21.9195 32.4901 21.9808ZM11.1298 25.9282C11.1777 25.9396 11.2038 25.9664 11.1934 25.9934C11.1837 26.0186 11.1436 26.2975 11.1042 26.6131C10.8203 28.8888 10.9574 31.1214 11.5141 33.287C11.6011 33.6254 11.6743 33.9394 11.6769 33.9848C11.6808 34.0558 11.6531 34.0763 11.4786 34.1307C11.2911 34.1891 11.2735 34.1895 11.2453 34.136C11.1993 34.0485 10.9405 33.0119 10.8397 32.5115C10.4218 30.4373 10.369 28.2878 10.6833 26.1378L10.7236 25.862L10.8861 25.8854C10.9755 25.8983 11.0851 25.9175 11.1298 25.9282ZM47.5024 25.9187C47.5355 26.0049 47.6632 27.0935 47.7007 27.6089C47.7469 28.244 47.7468 29.5552 47.7006 30.1596C47.6512 30.8061 47.5467 31.6214 47.435 32.2322C47.341 32.747 47.0232 34.0612 46.9729 34.1433C46.9514 34.1784 46.9001 34.1739 46.7298 34.1222L46.5139 34.0566L46.5997 33.7509C47.1019 31.961 47.3393 29.8963 47.2481 28.1104C47.2104 27.3713 47.1464 26.6952 47.0663 26.1893C47.0468 26.066 47.0372 25.9588 47.0449 25.951C47.0607 25.9352 47.3358 25.8784 47.4254 25.8725C47.4572 25.8703 47.4918 25.8912 47.5024 25.9187ZM24.073 31.545C24.9458 31.7455 25.5817 32.1617 26.0047 32.8097C26.3133 33.2824 26.4414 33.7501 26.4388 34.3944C26.433 35.8103 25.5486 36.8791 24.1101 37.2085C23.8918 37.2585 23.5996 37.2717 22.4137 37.2853L20.9809 37.3016V34.3768V31.4521L22.3961 31.4685C23.5628 31.482 23.8572 31.4955 24.073 31.545ZM31.4426 34.3529C32.1087 35.935 32.6537 37.2445 32.6537 37.2629C32.6537 37.2834 32.3566 37.2927 31.8905 37.2869L31.1273 37.2774L30.9321 36.7852L30.7368 36.293L29.5221 36.2837L28.3073 36.2745L28.1156 36.776L27.924 37.2774L27.1597 37.2869C26.5794 37.2941 26.3954 37.2861 26.3954 37.2538C26.3954 37.2303 26.9273 35.9525 27.5773 34.4141C28.2274 32.8757 28.773 31.581 28.7897 31.5371C28.8202 31.4573 28.8205 31.4573 29.5259 31.4668L30.2316 31.4763L31.4426 34.3529ZM33.9777 32.7244C34.3519 33.3916 34.6699 33.9407 34.6843 33.9448C34.6987 33.9488 35.019 33.3996 35.396 32.7243L36.0816 31.4965L36.8815 31.4952C37.3214 31.4945 37.6814 31.5038 37.6814 31.5159C37.6814 31.5281 37.1751 32.4358 36.5563 33.5331L35.4312 35.5282V36.4116V37.295H34.6929H33.9545V36.4097V35.5245L32.8588 33.5883C32.2561 32.5234 31.7399 31.6162 31.7117 31.5723L31.6602 31.4926L32.4788 31.502L33.2973 31.5115L33.9777 32.7244ZM22.4574 33.9813C22.4574 34.634 22.447 35.3459 22.4345 35.5635L22.4117 35.959H23.0111C23.5075 35.959 23.6488 35.9471 23.8339 35.8899C24.276 35.7533 24.6038 35.4691 24.8074 35.0461C24.9177 34.8169 24.9355 34.7429 24.9478 34.4623C24.9708 33.9364 24.8378 33.594 24.4787 33.2544C24.2635 33.0508 23.9409 32.8845 23.6568 32.8306C23.5528 32.8109 23.2404 32.7948 22.9626 32.7948H22.4576L22.4574 33.9813ZM29.1931 34.0016C29.0205 34.4497 28.8581 34.8678 28.8323 34.9306L28.7852 35.0449H29.5199H30.2545L29.9026 34.1395C29.7091 33.6416 29.5409 33.2236 29.5288 33.2105C29.5168 33.1975 29.3657 33.5535 29.1931 34.0016ZM44.7246 36.4602C44.9238 36.5933 45.0284 36.6846 45.0167 36.7152C45.0067 36.7413 44.7751 37.0972 44.5022 37.5059C44.2292 37.9147 43.9981 38.2693 43.9887 38.2939C43.9728 38.3355 44.5228 38.7303 44.5509 38.6975C44.5574 38.6899 44.7708 38.3713 45.0251 37.9894C45.2794 37.6075 45.4958 37.295 45.506 37.295C45.52 37.295 46.1231 37.6879 46.1836 37.7364C46.1899 37.7414 45.9911 38.0516 45.7418 38.4256C45.4926 38.7996 45.2781 39.1234 45.2653 39.1451C45.2443 39.1804 45.3181 39.2383 45.7008 39.4867L45.7919 39.5459L46.3302 38.7369C46.6263 38.2919 46.8825 37.9278 46.8996 37.9278C46.9225 37.9278 47.4961 38.2945 47.5896 38.3688C47.6091 38.3844 45.9685 40.8286 45.9433 40.8214C45.9122 40.8124 42.7727 38.7383 42.7293 38.6981C42.685 38.6569 44.3236 36.1996 44.3752 36.2299C44.3967 36.2425 44.5539 36.3461 44.7246 36.4602ZM13.5237 36.5052C14.2151 36.6682 14.8528 37.2855 15.0842 38.0157C15.195 38.3654 15.1924 38.9484 15.0789 39.2366C14.9996 39.4378 14.7141 39.8615 14.6578 39.8615C14.6256 39.8615 14.0898 39.0721 14.0898 39.0246C14.0898 39.0087 14.1234 38.9264 14.1644 38.8415C14.2245 38.717 14.2357 38.6429 14.2224 38.457C14.1931 38.0497 13.9411 37.6963 13.5572 37.524C13.369 37.4395 13.309 37.4291 13.0914 37.4433C12.7706 37.4641 12.4957 37.5957 12.2665 37.8381C12.0501 38.0668 11.9674 38.2992 11.9863 38.6252C12.0196 39.2011 12.5329 39.7169 13.035 39.6791L13.1798 39.6682L12.8965 39.2293C12.7406 38.9879 12.6131 38.7787 12.6131 38.7644C12.6131 38.75 12.7536 38.6439 12.9253 38.5284L13.2374 38.3186L13.8242 39.199C14.147 39.6833 14.406 40.0841 14.3998 40.0898C14.3869 40.1018 12.651 41.2423 12.5903 41.2786C12.5652 41.2937 12.4747 41.1868 12.3506 40.9953L12.1513 40.6878L12.2855 40.574C12.3594 40.5115 12.4317 40.46 12.4461 40.4598C12.4606 40.4595 12.4725 40.4452 12.4725 40.428C12.4725 40.4108 12.4132 40.3856 12.3407 40.372C11.8326 40.2767 11.3456 39.7802 11.1103 39.1174C10.984 38.7617 10.9781 38.1993 11.0972 37.8575C11.3116 37.242 11.8319 36.7518 12.4901 36.5453C12.8268 36.4397 13.1864 36.4258 13.5237 36.5052ZM42.067 40.6067L41.3555 41.2991L41.6016 41.5459L41.8477 41.7927L42.466 41.1986L43.0844 40.6045L43.3801 40.9029L43.6759 41.2012L43.0496 41.8027L42.4233 42.4042L42.6596 42.6423L42.8959 42.8804L43.6023 42.1977L44.3088 41.5149L44.6076 41.8159L44.9065 42.117L44.0275 42.9767C43.5441 43.4495 43.0615 43.9126 42.9552 44.0059L42.7618 44.1756L41.4258 42.7884C40.691 42.0255 40.0851 41.3889 40.0793 41.3737C40.0736 41.3585 40.5464 40.8858 41.13 40.3232L42.191 39.3002L42.4848 39.6073L42.7786 39.9143L42.067 40.6067ZM16.759 40.0501C16.954 40.2215 17.1135 40.3685 17.1135 40.3769C17.1135 40.3853 16.7751 40.7783 16.3615 41.2502C15.948 41.7221 15.5722 42.1842 15.5265 42.2769C15.3375 42.6608 15.4636 43.0982 15.8284 43.3237C15.978 43.4162 16.0334 43.4301 16.2521 43.4301C16.6015 43.4301 16.7437 43.3347 17.2493 42.7616C17.4708 42.5105 17.8162 42.1191 18.017 41.8918L18.382 41.4785L18.7492 41.8009C19.0633 42.0767 19.1101 42.1314 19.073 42.179C19.0491 42.2096 18.6981 42.6129 18.2928 43.0752C17.5195 43.9575 17.2564 44.1952 16.9072 44.3275C16.5163 44.4757 16.1269 44.4763 15.7386 44.3295C15.2817 44.1569 14.8149 43.7319 14.5964 43.2898C14.4755 43.0453 14.4604 42.9842 14.4474 42.6871C14.4294 42.2758 14.5137 41.9822 14.7533 41.6213C14.9226 41.3663 16.3398 39.7217 16.381 39.7324C16.394 39.7357 16.5641 39.8787 16.759 40.0501ZM39.7526 42.1768C39.8703 42.3674 39.9663 42.5375 39.966 42.5548C39.9655 42.5721 39.7661 42.7038 39.5228 42.8473C39.2795 42.9909 39.048 43.1346 39.0083 43.1668C38.9371 43.2244 38.9472 43.2435 39.7191 44.516C40.1498 45.226 40.4964 45.8112 40.4894 45.8166C40.3487 45.9233 39.68 46.2963 39.656 46.2815C39.6378 46.2702 39.2891 45.7111 38.8811 45.0389C38.4731 44.3668 38.1253 43.7954 38.1082 43.7692C38.0839 43.7321 37.9669 43.7886 37.5794 44.0244C37.3057 44.191 37.0641 44.3311 37.0426 44.3357C36.981 44.3491 36.5488 43.6128 36.6011 43.5836C36.6249 43.5703 37.2851 43.1705 38.0682 42.695C38.8513 42.2196 39.5025 41.8306 39.5153 41.8305C39.528 41.8305 39.6348 41.9863 39.7526 42.1768ZM21.2794 43.2975C21.5949 43.4546 21.6842 43.5146 21.6845 43.57C21.6851 43.6821 21.404 47.4564 21.3827 47.6219L21.3636 47.7706L20.9046 47.5406L20.4456 47.3106L20.4694 47.0052C20.4825 46.8372 20.5001 46.6756 20.5085 46.6459C20.5197 46.6062 20.3298 46.4924 19.7824 46.211L19.0411 45.8298L18.8947 45.9665C18.8142 46.0417 18.6966 46.1498 18.6333 46.2067L18.5183 46.3101L18.062 46.0841C17.811 45.9599 17.6057 45.848 17.6057 45.8356C17.6057 45.8137 20.8356 43.0961 20.8617 43.0961C20.8688 43.0961 21.0568 43.1867 21.2794 43.2975ZM36.5451 45.7507C36.8594 46.7562 37.1112 47.5946 37.1046 47.6139C37.0889 47.6595 36.433 47.8566 36.3731 47.8337C36.348 47.824 35.8076 47.4968 35.1723 47.1065C34.537 46.7163 34.0129 46.4018 34.0078 46.4077C34.0027 46.4137 34.1374 46.8615 34.3074 47.403C34.4772 47.9444 34.6058 48.3977 34.593 48.4104C34.5534 48.4497 33.7096 48.6991 33.6883 48.6779C33.6773 48.6668 33.4103 47.8296 33.095 46.8174C32.7084 45.5765 32.5346 44.9701 32.5613 44.9556C32.5831 44.9438 32.7445 44.8907 32.9201 44.8376L33.2393 44.7411L34.3903 45.4656C35.0234 45.864 35.5704 46.2056 35.6059 46.2246C35.6803 46.2644 35.7177 46.4061 35.2925 45.036C35.1525 44.585 35.0482 44.2053 35.0607 44.1922C35.0957 44.1556 35.8639 43.9101 35.9221 43.9168C35.958 43.921 36.1464 44.4757 36.5451 45.7507ZM20.2268 44.7898C19.7853 45.1818 19.7489 45.223 19.8072 45.2657C19.9583 45.3761 20.5686 45.6668 20.5924 45.6397C20.6217 45.6062 20.7485 44.3989 20.7251 44.3755C20.7169 44.3673 20.4927 44.5537 20.2268 44.7898ZM24.6818 44.6449C25.6621 44.858 25.8704 44.9226 26.1408 45.0974C26.6107 45.4011 26.8445 45.9073 26.7503 46.417C26.6638 46.8847 26.4061 47.2378 26.013 47.4273C25.8849 47.489 25.7753 47.5426 25.7695 47.5463C25.7637 47.5501 25.9107 47.8812 26.0963 48.2822C26.2818 48.6832 26.4276 49.0174 26.4202 49.0247C26.4074 49.0375 25.3038 48.8026 25.2863 48.7834C25.2816 48.7783 25.1503 48.4893 24.9945 48.1413L24.7112 47.5084L24.4546 47.4484C24.3134 47.4153 24.1818 47.3876 24.1621 47.3868C24.1424 47.386 24.0751 47.6254 24.0125 47.9188C23.95 48.2121 23.8921 48.4588 23.8839 48.467C23.8758 48.4752 23.6623 48.4372 23.4095 48.3826C23.0572 48.3065 22.9498 48.2704 22.9498 48.2281C22.9498 48.183 23.675 44.8301 23.7455 44.5493C23.7568 44.5042 23.7883 44.4673 23.8155 44.4673C23.8426 44.4673 24.2325 44.5472 24.6818 44.6449ZM30.2551 45.1792C30.3006 45.2349 32.0625 49.0083 32.0486 49.0204C32.043 49.0253 31.8098 49.0352 31.5304 49.0424L31.0224 49.0554L30.8799 48.7288L30.7375 48.4023L30.2277 48.4221C29.9473 48.4329 29.5744 48.4506 29.399 48.4613L29.0801 48.4809L28.9857 48.7682C28.9338 48.9261 28.8772 49.0774 28.86 49.1043C28.8364 49.1411 28.701 49.1576 28.3175 49.1706L27.8064 49.188L28.2438 48.0318C28.4844 47.3959 28.8259 46.4924 29.0026 46.0241L29.3239 45.1726L29.7143 45.1615C29.929 45.1553 30.1304 45.1469 30.1619 45.1428C30.1934 45.1386 30.2353 45.1551 30.2551 45.1792ZM24.5311 45.5484C24.5305 45.5629 24.4839 45.7804 24.4274 46.0318C24.3709 46.2832 24.3358 46.4986 24.3492 46.5104C24.4085 46.5624 25.1516 46.6891 25.309 46.6739C25.7318 46.6333 25.9272 46.2152 25.6675 45.9066C25.5421 45.7576 25.4112 45.699 24.9934 45.6045C24.6006 45.5157 24.5325 45.5074 24.5311 45.5484ZM29.6046 46.966L29.3867 47.5963L29.816 47.5939C30.0521 47.5925 30.2712 47.5807 30.3028 47.5675C30.3522 47.547 30.3233 47.4588 30.1006 46.9488C29.9577 46.6216 29.8367 46.3498 29.8316 46.3448C29.8266 46.3398 29.7245 46.6193 29.6046 46.966Z" fill="#17449C"/>
</svg>
