<svg width="58" height="58" viewBox="0 0 58 58" fill="none" xmlns="http://www.w3.org/2000/svg">
<path fill-rule="evenodd" clip-rule="evenodd" d="M31.2508 0.306784C31.6333 0.180496 32.2471 0.0449965 32.5658 0.0165535C33.5692 -0.0730295 34.5241 0.20036 35.4839 0.851981C36.1362 1.29483 36.4512 1.57782 38.0681 3.17411C38.7739 3.87091 39.5017 4.56106 39.6854 4.70778C40.9891 5.74906 41.8649 6.06555 44.5373 6.46111C46.8481 6.80317 47.5569 6.97456 48.4669 7.41112C49.0154 7.67428 49.3627 7.91357 49.742 8.28951C50.3905 8.93242 50.8391 9.84354 51.1441 11.1373C51.2757 11.6957 51.3542 12.1445 51.5345 13.3699C51.9133 15.9439 52.2101 16.8565 53.0244 17.9506C53.4443 18.5148 53.6692 18.7599 55.0322 20.1378C55.7494 20.8629 56.4846 21.6382 56.6659 21.8606C57.4371 22.8066 57.8366 23.6061 57.9731 24.4771C58.0326 24.8568 57.9894 25.633 57.8834 26.0892C57.6796 26.9671 57.4438 27.5245 56.4377 29.5075C56.0256 30.3196 55.618 31.1502 55.532 31.3533C55.0348 32.5269 54.8751 33.4132 54.9464 34.6037C54.9849 35.2455 55.0296 35.5802 55.2777 37.084C55.571 38.8621 55.5904 39.0387 55.5923 39.9494C55.5936 40.572 55.5801 40.832 55.5336 41.0793C55.3524 42.0416 54.975 42.7512 54.2963 43.4054C53.629 44.0487 53.0166 44.4325 51.1142 45.3998C49.6403 46.1491 49.2053 46.3913 48.6158 46.7912C47.8404 47.3171 47.317 47.8406 46.791 48.6159C46.3911 49.2055 46.1489 49.6405 45.3995 51.1143C44.4323 53.0167 44.0485 53.6291 43.4052 54.2964C42.7571 54.9687 42.0731 55.3357 41.1049 55.5307C40.8567 55.5807 40.624 55.5933 39.9667 55.5923C39.0366 55.591 38.8761 55.5734 37.0837 55.2776C35.6209 55.0362 35.2515 54.987 34.601 54.9467C33.4208 54.8738 32.5262 55.035 31.3528 55.5321C31.1497 55.6181 30.3191 56.0256 29.5069 56.4377C27.524 57.4438 26.9665 57.6796 26.0887 57.8834C25.6324 57.9894 24.8562 58.0326 24.4765 57.9731C23.6055 57.8366 22.8059 57.4371 21.8599 56.6659C21.6375 56.4846 20.8623 55.7495 20.1371 55.0322C18.7592 53.6693 18.5141 53.4444 17.9499 53.0245C16.8724 52.2226 15.9253 51.9099 13.4921 51.5528C13.0184 51.4833 12.3934 51.3865 12.1033 51.3377C10.2478 51.0255 9.07438 50.5347 8.28862 49.7421C7.91267 49.3629 7.67338 49.0155 7.41021 48.467C6.97364 47.5571 6.80225 46.8483 6.46019 44.5376C6.06504 41.8681 5.74288 40.9762 4.70773 39.6857C4.56038 39.502 3.86958 38.7743 3.17259 38.0685C2.47564 37.3627 1.78646 36.6507 1.64111 36.4864C0.0179369 34.6506 -0.345711 33.2241 0.306274 31.2497C0.515785 30.6153 0.714959 30.1795 1.52027 28.5933C2.30463 27.0484 2.50936 26.6029 2.73096 25.9587C3.19868 24.5991 3.1997 23.6967 2.73655 20.9464C2.6405 20.376 2.53731 19.7206 2.50721 19.4899C2.15246 16.7696 2.63498 15.3255 4.31698 14.0738C4.91004 13.6324 5.69429 13.1918 7.46183 12.3067C10.1589 10.9563 10.9554 10.1598 12.3059 7.46274C13.1909 5.69523 13.6316 4.91099 14.073 4.31794C15.3248 2.63598 16.7688 2.15347 19.4892 2.50821C19.7199 2.53831 20.3753 2.6415 20.9458 2.73755C23.6961 3.20069 24.5985 3.19967 25.9581 2.73196C26.6023 2.51036 27.0479 2.30563 28.5928 1.52129C30.1799 0.715498 30.6147 0.516819 31.2508 0.306784Z" fill="#3171FB"/>
<g clip-path="url(#clip0_4086_42570)">
<path d="M11.2839 27.6647C11.2951 27.4987 11.2883 27.3619 11.2592 27.2542C11.2032 27.0523 11.08 26.9424 10.8896 26.9289C10.7775 26.92 10.6879 26.9626 10.6207 27.0568C10.5535 27.151 10.4908 27.2991 10.428 27.5054L10.3205 27.8576C10.2152 28.2031 10.1099 28.4408 10.0069 28.5687C9.83436 28.784 9.5812 28.8805 9.24962 28.8558C8.94718 28.8334 8.70522 28.7055 8.52151 28.47C8.3378 28.2345 8.26163 27.9047 8.29299 27.4785C8.31988 27.1219 8.43638 26.8258 8.64249 26.588C8.8486 26.3502 9.13313 26.2381 9.49158 26.2538L9.44229 26.9334C9.23842 26.9312 9.08832 27.0075 8.98974 27.1667C8.92477 27.2721 8.88669 27.4067 8.87549 27.5705C8.86204 27.7522 8.88669 27.9002 8.9539 28.0146C9.01887 28.129 9.11744 28.1896 9.24962 28.2008C9.3706 28.2098 9.4647 28.1627 9.53191 28.0595C9.57671 27.9944 9.63496 27.8509 9.70441 27.6288L9.88812 27.0568C9.96878 26.8056 10.0629 26.6194 10.1749 26.496C10.3474 26.3054 10.5849 26.2224 10.8873 26.2448C11.1965 26.2672 11.4429 26.4041 11.6289 26.6553C11.8148 26.9065 11.8932 27.2475 11.8619 27.6782C11.8305 28.1178 11.7028 28.4588 11.4833 28.6943C11.2637 28.9321 10.9792 29.0375 10.6274 29.0106L10.6767 28.3354C10.8336 28.3264 10.95 28.2928 11.0329 28.2345C11.1808 28.129 11.2637 27.9384 11.2839 27.6602V27.6647Z" fill="white"/>
<path d="M11.8277 23.6275L11.5006 24.8321L12.11 25.2426L11.9151 25.9581L8.9668 23.8989L9.17739 23.1273L12.7597 22.8604L12.5581 23.6006L11.83 23.6275H11.8277ZM11.2139 23.6656L9.81813 23.724L10.9898 24.4956L11.2161 23.6656H11.2139Z" fill="white"/>
<path d="M10.8273 19.0423L11.3717 19.2935L10.9461 20.2132L13.4754 21.3841L13.1774 22.0301L10.6481 20.8592L10.2202 21.7834L9.67578 21.5322L10.8273 19.04V19.0423Z" fill="white"/>
<path d="M11.3223 18.2683L11.6964 17.6738L14.5618 19.4818L14.1877 20.0785L11.3223 18.2705V18.2683Z" fill="white"/>
<path d="M15.3892 17.5571C15.4968 17.4293 15.5685 17.3126 15.6088 17.2094C15.6827 17.012 15.6446 16.8528 15.499 16.7294C15.4139 16.6576 15.3153 16.6397 15.2055 16.6756C15.098 16.7115 14.9568 16.7967 14.7866 16.9268L14.4953 17.1489C14.2086 17.3687 13.9845 17.4988 13.8277 17.5414C13.5611 17.6154 13.3012 17.5459 13.0458 17.3328C12.8128 17.1377 12.6918 16.8909 12.6784 16.5926C12.6672 16.2942 12.7971 15.9802 13.0727 15.6527C13.3012 15.379 13.5701 15.2063 13.877 15.1345C14.1839 15.0628 14.4796 15.139 14.7619 15.3611L14.3251 15.8837C14.1615 15.7626 13.9935 15.7379 13.821 15.8097C13.7067 15.8568 13.5969 15.9443 13.4916 16.0699C13.3751 16.209 13.3102 16.3458 13.2967 16.4759C13.2833 16.606 13.3259 16.7137 13.4267 16.7989C13.5185 16.8775 13.6238 16.8932 13.7381 16.8505C13.812 16.8236 13.9442 16.7406 14.1279 16.6015L14.6096 16.2449C14.8202 16.0879 15.0084 15.9937 15.1697 15.9578C15.4206 15.9062 15.6625 15.9757 15.8933 16.1709C16.1308 16.3705 16.2518 16.6262 16.2562 16.938C16.2607 17.2498 16.1241 17.5728 15.8463 17.9048C15.564 18.2435 15.2638 18.4454 14.9456 18.5082C14.6297 18.5733 14.3363 18.4925 14.0652 18.266L14.4998 17.7478C14.632 17.8308 14.7485 17.8734 14.8471 17.8734C15.0285 17.8734 15.2078 17.768 15.387 17.5549L15.3892 17.5571Z" fill="white"/>
<path d="M17.1622 12.7137L15.8605 13.8039L16.3601 14.4028L17.5005 13.4473L17.8768 13.8981L16.7365 14.8537L17.6483 15.9439L17.1084 16.3947L14.9375 13.7972L16.7791 12.2539L17.1599 12.7115L17.1622 12.7137Z" fill="white"/>
<path d="M20.5687 13.0748L19.4889 13.7006L19.6345 14.4207L18.9937 14.7908L18.3418 11.2511L19.0341 10.8496L21.7695 13.1825L21.1064 13.5683L20.5687 13.0748ZM20.105 12.6688L19.0722 11.7267L19.3612 13.0995L20.105 12.6688Z" fill="white"/>
<path d="M24.4254 12.0051C24.2596 12.3057 23.9908 12.5188 23.6166 12.6422C23.1551 12.797 22.7429 12.77 22.3777 12.5637C22.0148 12.3551 21.7437 11.9894 21.5712 11.4713C21.383 10.9105 21.3875 10.4282 21.5869 10.0222C21.7594 9.67002 22.0484 9.42552 22.4517 9.29093C22.9916 9.10923 23.4464 9.1541 23.8138 9.42552C24.0177 9.57805 24.1588 9.75301 24.2372 9.95041L23.5651 10.1747C23.471 10.0356 23.3747 9.93695 23.2806 9.88312C23.1126 9.78442 22.9087 9.77545 22.669 9.8562C22.4248 9.93919 22.2657 10.1007 22.1918 10.3452C22.1178 10.5897 22.1402 10.8925 22.2612 11.2514C22.3822 11.6103 22.548 11.8571 22.7563 11.9872C22.9647 12.1173 23.1842 12.142 23.415 12.0657C23.6502 11.9872 23.8048 11.8504 23.8765 11.653C23.9168 11.5475 23.9325 11.404 23.9213 11.2223L24.5867 11.0002C24.645 11.3703 24.5934 11.7045 24.4276 12.0051H24.4254Z" fill="white"/>
<path d="M27.5379 8.29492L27.6208 8.88935L26.6171 9.02843L27.0002 11.792L26.2945 11.8907L25.9114 9.12713L24.9032 9.2662L24.8203 8.67177L27.5379 8.29492Z" fill="white"/>
<path d="M28.4531 8.29286L29.1566 8.28613L29.1924 11.6755L28.489 11.6822L28.4531 8.29286Z" fill="white"/>
<path d="M31.4334 11.9426C30.954 11.8753 30.6067 11.6936 30.3894 11.3975C30.0937 11.0297 29.9884 10.5451 30.0713 9.94173C30.1564 9.32711 30.3917 8.88745 30.7725 8.62725C31.0615 8.40069 31.4469 8.32218 31.9263 8.38948C32.4058 8.45677 32.753 8.63847 32.9703 8.93456C33.266 9.29122 33.3713 9.77574 33.284 10.3904C33.2011 10.9938 32.9681 11.4312 32.585 11.7048C32.296 11.9314 31.9106 12.0099 31.4312 11.9426H31.4334ZM32.2198 11.1328C32.4102 10.9511 32.5335 10.6708 32.585 10.2917C32.6365 9.91481 32.5962 9.61199 32.4618 9.38319C32.3273 9.15439 32.1212 9.02204 31.8434 8.98167C31.5656 8.94353 31.3304 9.01531 31.1355 9.19701C30.9406 9.3787 30.8173 9.6591 30.7658 10.0382C30.7143 10.4173 30.7546 10.7201 30.8913 10.9467C31.0279 11.1755 31.2363 11.3078 31.5141 11.3459C31.7919 11.3841 32.0271 11.3123 32.2198 11.1306V11.1328Z" fill="white"/>
<path d="M36.2146 13.1786L35.5492 12.9385L35.063 10.2042L34.2475 12.4697L33.627 12.2454L34.774 9.05566L35.473 9.3069L35.9412 11.9919L36.7433 9.7645L37.3639 9.98881L36.2168 13.1786H36.2146Z" fill="white"/>
<path d="M40.0894 13.9955L39.5002 13.5626L38.7161 14.6348L38.1582 14.2266L40.1588 11.4922L41.4986 12.4747C41.6868 12.6182 41.8167 12.7506 41.8884 12.8695C41.9601 12.9884 42.0004 13.1162 42.0116 13.2531C42.0206 13.3652 42.0116 13.4774 41.9847 13.5873C41.9578 13.6972 41.9041 13.8049 41.8257 13.9125C41.7316 14.0426 41.6039 14.1458 41.447 14.2243C41.2902 14.3028 41.1177 14.3118 40.9273 14.2535C41.0169 14.3971 41.0527 14.5339 41.0371 14.6662C41.0214 14.7986 40.943 14.9601 40.8041 15.1508L40.6696 15.3347C40.5778 15.4603 40.5218 15.5478 40.4994 15.5994C40.4635 15.6801 40.459 15.7586 40.4904 15.8304L40.4411 15.9L39.8138 15.4401C39.8407 15.3661 39.8631 15.3078 39.8833 15.2674C39.9258 15.1799 39.9751 15.0947 40.0311 15.0139L40.2126 14.756C40.3381 14.5787 40.3918 14.4397 40.3717 14.3365C40.3537 14.2333 40.2597 14.1211 40.0916 13.9978L40.0894 13.9955ZM40.7996 13.7533C40.9519 13.7847 41.0841 13.7241 41.1961 13.5693C41.3171 13.4033 41.344 13.2508 41.2745 13.114C41.2364 13.0355 41.1558 12.9525 41.0326 12.8627L40.3694 12.376L39.8317 13.1117L40.4792 13.585C40.6069 13.6793 40.7144 13.7353 40.8018 13.7533H40.7996Z" fill="white"/>
<path d="M42.7504 17.3282L41.908 16.4062L41.2359 16.7023L40.7363 16.155L44.0498 14.7598L44.5897 15.3497L42.9005 18.5238L42.383 17.9562L42.7504 17.3259V17.3282ZM43.0484 16.7876L43.7474 15.5763L42.4681 16.1528L43.0484 16.7876Z" fill="white"/>
<path d="M47.1518 18.9212L46.6478 19.2464L46.0966 18.394L43.7577 19.9104L43.3701 19.3115L45.709 17.7951L45.1557 16.9405L45.6598 16.6152L47.1496 18.9212H47.1518Z" fill="white"/>
<path d="M47.547 19.7598L47.8495 20.3946L44.7937 21.8549L44.4912 21.22L47.547 19.7598Z" fill="white"/>
<path d="M45.9528 25.1657L45.7422 24.4883L47.6263 22.4493L45.33 23.1671L45.1328 22.5368L48.3656 21.5273L48.5874 22.2362L46.7324 24.2303L48.9885 23.526L49.1856 24.1563L45.9528 25.1657Z" fill="white"/>
<path d="M46.3836 27.9406C46.2514 27.7657 46.173 27.5414 46.1461 27.2699C46.1035 26.8236 46.2223 26.4422 46.5046 26.1259C46.7869 25.7984 47.1991 25.61 47.739 25.5584C48.2857 25.5068 48.736 25.6145 49.0944 25.8837C49.4529 26.1529 49.6545 26.5342 49.7016 27.0299C49.7419 27.4584 49.6657 27.8128 49.4753 28.0954C49.2826 28.3758 49.0272 28.5508 48.7046 28.6203L48.6396 27.9272C48.8637 27.8509 49.0138 27.7051 49.0855 27.4898C49.1235 27.3686 49.137 27.2385 49.1235 27.095C49.0967 26.8236 48.9734 26.6105 48.7516 26.4557C48.5298 26.3009 48.214 26.2426 47.8017 26.283C47.3873 26.3233 47.1027 26.4445 46.9482 26.6508C46.7936 26.8572 46.7286 27.0793 46.751 27.3215C46.7734 27.5593 46.8608 27.7455 47.0109 27.8846C47.161 28.0236 47.3492 28.0977 47.5732 28.1134L47.4993 27.3327L48.0616 27.2789L48.196 28.6854L46.3881 28.8581L46.3433 28.3915L46.7577 28.2794C46.5852 28.1582 46.4598 28.0483 46.3836 27.9451V27.9406Z" fill="white"/>
<path d="M45.9807 33.5407C45.8881 33.3437 45.5936 33.3557 45.5241 33.5705L45.5241 33.5705L45.1052 34.8648L45.1051 34.8651C45.0447 35.0493 44.8745 35.174 44.6807 35.174H43.3208C43.0817 35.174 42.9829 35.4785 43.1758 35.619C43.1758 35.619 43.1758 35.619 43.1758 35.619L44.2758 36.4198L44.2765 36.4203C44.4311 36.5349 44.4982 36.7341 44.4375 36.9196C44.4375 36.9197 44.4375 36.9198 44.4375 36.9198L44.0186 38.2138L44.0185 38.2142C43.9434 38.4428 44.2031 38.6304 44.3956 38.4902L44.3956 38.4902L45.4956 37.6894L45.4959 37.6892C45.6518 37.5764 45.8626 37.5764 46.0186 37.6892L46.0188 37.6894L47.1187 38.4901C47.3087 38.628 47.5693 38.4409 47.4958 38.2138L47.077 36.9198C47.0769 36.9198 47.0769 36.9197 47.0769 36.9196L47.0769 36.9195L47.172 36.8887C47.1249 36.7451 47.1765 36.5881 47.2975 36.5006L45.9807 33.5407ZM45.9807 33.5407L45.9903 33.5705L46.4092 34.8648L46.4093 34.8651C46.4697 35.0493 46.6399 35.174 46.8337 35.174H48.1936C48.4313 35.174 48.5309 35.479 48.3386 35.619L47.2389 36.4196C47.2388 36.4196 47.2387 36.4197 47.2387 36.4197L45.9807 33.5407Z" fill="white" stroke="#3171FB" stroke-width="0.2"/>
<path d="M39.1838 41.8356C39.0912 41.6386 38.7968 41.6506 38.7273 41.8654L38.7273 41.8654L38.3083 43.1597L38.3082 43.16C38.2478 43.3442 38.0777 43.4689 37.8838 43.4689H36.524C36.2849 43.4689 36.186 43.7734 36.3789 43.9139C36.3789 43.9139 36.3789 43.9139 36.3789 43.9139L37.4789 44.7147L37.4797 44.7152C37.6342 44.8298 37.7014 45.029 37.6406 45.2145C37.6406 45.2146 37.6406 45.2147 37.6406 45.2148L37.2217 46.5087L37.2216 46.5091C37.1466 46.7377 37.4062 46.9253 37.5987 46.7851L37.5987 46.7851L38.6987 45.9843L38.699 45.9841C38.8549 45.8714 39.0657 45.8714 39.2217 45.9841L39.2219 45.9843L40.3218 46.785L39.1838 41.8356ZM39.1838 41.8356L39.1934 41.8654L39.6124 43.1597L39.6125 43.16C39.6728 43.3442 39.843 43.4689 40.0368 43.4689H41.3967C41.6344 43.4689 41.734 43.7739 41.5417 43.9139C41.5417 43.9139 41.5417 43.9139 41.5417 43.9139L40.442 44.7145M39.1838 41.8356L40.442 44.7145M40.442 44.7145C40.4419 44.7145 40.4419 44.7146 40.4418 44.7146C40.2858 44.8276 40.2196 45.0298 40.28 45.2145L40.442 44.7145ZM40.6989 46.5087L40.2801 45.2148L40.6989 46.5087ZM40.6989 46.5087C40.7724 46.7357 40.5119 46.9228 40.322 46.7851L40.6989 46.5087Z" fill="white" stroke="#3171FB" stroke-width="0.2"/>
<path d="M29.2502 44.8151C29.1576 44.6181 28.8632 44.6301 28.7937 44.8449L28.7937 44.8449L28.3747 46.1392L28.3746 46.1395C28.3143 46.3237 28.1441 46.4484 27.9503 46.4484H26.5904C26.3513 46.4484 26.2524 46.7529 26.4453 46.8934C26.4453 46.8934 26.4453 46.8934 26.4454 46.8934L27.5454 47.6942L27.5461 47.6947C27.7006 47.8093 27.7678 48.0085 27.707 48.1941C27.707 48.1941 27.707 48.1942 27.707 48.1942L27.2882 49.4882L27.288 49.4886C27.213 49.7172 27.4726 49.9048 27.6651 49.7646L27.6651 49.7646L28.7651 48.9638L28.7654 48.9636C28.9213 48.8508 29.1321 48.8508 29.2881 48.9636L29.2883 48.9638L30.3882 49.7645L29.2502 44.8151ZM29.2502 44.8151L29.2598 44.8449L29.6788 46.1392L29.6789 46.1395C29.7392 46.3237 29.9094 46.4484 30.1032 46.4484H31.4631C31.7008 46.4484 31.8004 46.7534 31.6081 46.8934M29.2502 44.8151L31.6081 46.8934M31.6081 46.8934L30.5084 47.694C30.5084 47.694 30.5083 47.694 30.5083 47.6941C30.3522 47.807 30.286 48.0092 30.3464 48.194C30.3464 48.1941 30.3465 48.1942 30.3465 48.1942L30.7653 49.4882C30.8388 49.7152 30.5783 49.9023 30.3884 49.7646L31.6081 46.8934Z" fill="white" stroke="#3171FB" stroke-width="0.2"/>
<path d="M19.3117 41.8357C19.2191 41.6386 18.9247 41.6506 18.8552 41.8654L18.8552 41.8654L18.4362 43.1597L18.4361 43.16C18.3758 43.3442 18.2056 43.4689 18.0118 43.4689H16.6519C16.4128 43.4689 16.3139 43.7734 16.5069 43.9139C16.5069 43.9139 16.5069 43.9139 16.5069 43.9139L17.6069 44.7147L17.6076 44.7152C17.7621 44.8298 17.8293 45.029 17.7686 45.2145C17.7686 45.2146 17.7685 45.2147 17.7685 45.2148L17.3497 46.5087L17.3496 46.5091C17.2745 46.7377 17.5341 46.9253 17.7266 46.7851L17.7266 46.7851L18.8267 45.9843L18.8269 45.9841C18.9829 45.8714 19.1937 45.8714 19.3496 45.9841L19.3499 45.9843L20.4498 46.785C20.6397 46.9229 20.9003 46.7358 20.8268 46.5087L20.408 45.2148C20.408 45.2147 20.408 45.2146 20.408 45.2145L20.4079 45.2144L20.503 45.1836C20.456 45.04 20.5075 44.883 20.6285 44.7955L19.3117 41.8357ZM19.3117 41.8357L19.3213 41.8654L19.7403 43.1597L19.7404 43.16C19.8008 43.3442 19.9709 43.4689 20.1648 43.4689H21.5246C21.7623 43.4689 21.8619 43.7739 21.6697 43.9139C21.6697 43.9139 21.6697 43.9139 21.6697 43.9139L20.5699 44.7145C20.5699 44.7145 20.5698 44.7146 20.5698 44.7146L19.3117 41.8357Z" fill="white" stroke="#3171FB" stroke-width="0.2"/>
<path d="M12.5148 33.5407C12.4223 33.3437 12.1278 33.3557 12.0583 33.5705L12.0583 33.5705L11.6394 34.8648L11.6393 34.8651C11.5789 35.0493 11.4087 35.174 11.2149 35.174H9.85501C9.61593 35.174 9.51707 35.4785 9.70999 35.619C9.71 35.619 9.71 35.619 9.71 35.619L10.81 36.4198L10.8107 36.4203C10.9653 36.5349 11.0324 36.7341 10.9717 36.9196C10.9717 36.9197 10.9717 36.9198 10.9716 36.9198L10.5528 38.2138L10.5527 38.2142C10.4776 38.4428 10.7372 38.6304 10.9298 38.4902L10.9298 38.4902L12.0298 37.6894L12.03 37.6892C12.186 37.5764 12.3968 37.5764 12.5527 37.6892L12.553 37.6894L13.6529 38.4901C13.8428 38.628 14.1035 38.4409 14.03 38.2138L13.6111 36.9198C13.6111 36.9198 13.6111 36.9197 13.6111 36.9196L13.611 36.9195L13.7062 36.8887C13.6591 36.7451 13.7107 36.5881 13.8316 36.5006L12.5148 33.5407ZM12.5148 33.5407L12.5245 33.5705L12.9434 34.8648L12.9435 34.8651C13.0039 35.0493 13.1741 35.174 13.3679 35.174H14.7278C14.9654 35.174 15.065 35.479 14.8728 35.619L13.773 36.4196C13.773 36.4196 13.773 36.4196 13.7729 36.4196L12.5148 33.5407Z" fill="white" stroke="#3171FB" stroke-width="0.2"/>
</g>
<path d="M16.1767 31.6862C16.4638 32.3747 16.6516 32.6795 17.027 33.0293C17.6786 33.6163 18.529 33.9097 19.5781 33.9097C20.0751 33.9097 20.6162 33.8194 21.0579 33.6727C21.842 33.4131 22.5488 32.7698 22.9353 31.9571C23.3439 31.0993 23.5648 29.9932 23.5648 28.7968C23.5648 27.5553 23.3218 26.4831 22.8691 25.7494C22.2065 24.6659 21.0911 24.079 19.6885 24.079C17.5019 24.079 16 25.4447 16 27.4424C16 29.3386 17.2921 30.5688 19.2799 30.5688C20.2518 30.5688 20.8812 30.3318 21.4776 29.7562C21.4113 30.5237 21.3119 30.93 21.1021 31.2912C20.8039 31.7991 20.307 32.0813 19.6885 32.0813C19.2468 32.0813 18.8934 31.9345 18.6504 31.6637C18.54 31.5395 18.4737 31.4266 18.3854 31.1783L16.1767 31.6862ZM19.6554 28.7856C18.7498 28.7856 18.1535 28.2099 18.1535 27.3409C18.1535 26.4831 18.783 25.8962 19.6996 25.8962C20.6162 25.8962 21.2567 26.4831 21.2567 27.3296C21.2567 28.1986 20.6051 28.7856 19.6554 28.7856Z" fill="white"/>
<path d="M24.6077 31.6862C24.8949 32.3747 25.0826 32.6795 25.4581 33.0293C26.1096 33.6163 26.96 33.9097 28.0091 33.9097C28.5061 33.9097 29.0472 33.8194 29.489 33.6727C30.273 33.4131 30.9798 32.7698 31.3664 31.9571C31.775 31.0993 31.9958 29.9932 31.9958 28.7968C31.9958 27.5553 31.7529 26.4831 31.3001 25.7494C30.6375 24.6659 29.5221 24.079 28.1196 24.079C25.9329 24.079 24.431 25.4447 24.431 27.4424C24.431 29.3386 25.7231 30.5688 27.711 30.5688C28.6828 30.5688 29.3123 30.3318 29.9086 29.7562C29.8423 30.5237 29.743 30.93 29.5331 31.2912C29.235 31.7991 28.738 32.0813 28.1196 32.0813C27.6778 32.0813 27.3244 31.9345 27.0815 31.6637C26.971 31.5395 26.9048 31.4266 26.8164 31.1783L24.6077 31.6862ZM28.0864 28.7856C27.1809 28.7856 26.5845 28.2099 26.5845 27.3409C26.5845 26.4831 27.214 25.8962 28.1306 25.8962C29.0472 25.8962 29.6877 26.4831 29.6877 27.3296C29.6877 28.1986 29.0362 28.7856 28.0864 28.7856Z" fill="white"/>
<path d="M35.1481 29.395C35.8328 29.395 36.4402 29.1693 36.8488 28.7517C37.2905 28.3115 37.5224 27.623 37.5224 26.7427C37.5224 25.8849 37.3015 25.2077 36.8598 24.7562C36.4512 24.3386 35.8548 24.1129 35.1481 24.1129C34.4523 24.1129 33.856 24.3386 33.4363 24.7562C32.9946 25.2077 32.7627 25.8962 32.7627 26.754C32.7627 27.6117 32.9946 28.3115 33.4253 28.7404C33.856 29.1693 34.4413 29.395 35.1481 29.395ZM35.1481 25.3318C35.7002 25.3318 35.9874 25.8059 35.9874 26.7427C35.9874 27.702 35.7002 28.1874 35.1481 28.1874C34.5848 28.1874 34.2977 27.6907 34.2977 26.7427C34.2977 25.8172 34.5959 25.3318 35.1481 25.3318ZM40.6146 33.8758C41.3103 33.8758 41.9177 33.6501 42.3263 33.2325C42.7681 32.7923 43 32.0926 43 31.2235C43 29.5643 42.1276 28.5937 40.6256 28.5937C39.9189 28.5937 39.3225 28.8194 38.9029 29.237C38.4611 29.6885 38.2292 30.377 38.2292 31.2235C38.2292 32.0926 38.4611 32.7923 38.8918 33.2212C39.3225 33.6501 39.9189 33.8758 40.6146 33.8758ZM40.6256 29.8126C41.1778 29.8126 41.465 30.2867 41.465 31.2009C41.465 32.1828 41.1889 32.6682 40.6146 32.6682C40.0514 32.6682 39.7643 32.1716 39.7643 31.2009C39.7643 30.2867 40.0624 29.8126 40.6256 29.8126ZM33.9885 33.5485L34.5628 34L41.7631 24.4515L41.1778 24L33.9885 33.5485Z" fill="white"/>
<defs>
<clipPath id="clip0_4086_42570">
<rect width="41.4286" height="41.4286" fill="white" transform="translate(8.28613 8.28613)"/>
</clipPath>
</defs>
</svg>
